<?xml version="1.0" encoding="utf-8"?>
<!-- Generator: Adobe Illustrator 23.0.3, SVG Export Plug-In . SVG Version: 6.00 Build 0)  -->
<svg version="1.1" xmlns="http://www.w3.org/2000/svg" xmlns:xlink="http://www.w3.org/1999/xlink" x="0px" y="0px"
	 viewBox="0 0 60 60" style="enable-background:new 0 0 60 60;" xml:space="preserve">
<style type="text/css">
	.st0{fill:none;stroke:#000000;stroke-width:1.4;stroke-linecap:round;stroke-miterlimit:10;}
	.st1{fill:none;stroke:#000000;stroke-width:1.4;stroke-miterlimit:10;}
	.st2{fill:none;}
</style>
<g id="レイヤー_2">
	<g>
	</g>
</g>
<g id="レイヤー_3">
	
		<text transform="matrix(1 0 0 1 -25.2726 -12.5808)" style="fill:#00A0E9; font-family:'KozGoPr6N-Regular-83pv-RKSJ-H'; font-size:12px;">ラインの太さ：1.4px</text>
</g>
<g id="customer_x5F_review">
	<g>
		<g>
			<path d="M-14.4,7c0.3,0,0.6,0.3,0.6,0.6V44c0,0.3-0.3,0.6-0.6,0.6h-56c-0.3,0-0.6-0.3-0.6-0.6V7.6c0-0.3,0.3-0.6,0.6-0.6H-14.4
				 M-14.4,5.6h-56c-1.1,0-2,0.9-2,2V44c0,1.1,0.9,2,2,2h56c1.1,0,2-0.9,2-2V7.6C-12.4,6.5-13.3,5.6-14.4,5.6L-14.4,5.6z"/>
		</g>
		<g>
			<line class="st0" x1="-59.1" y1="17.4" x2="-25.7" y2="17.4"/>
		</g>
		<g>
			<line class="st0" x1="-59.1" y1="25.8" x2="-25.7" y2="25.8"/>
		</g>
		<g>
			<line class="st0" x1="-59.2" y1="34.2" x2="-41" y2="34.2"/>
		</g>
		<polyline class="st1" points="-60.6,45.3 -60.6,55.8 -48,45.3 		"/>
	</g>
	<g>
		<g>
			<line class="st0" x1="13.3" y1="16" x2="46.7" y2="16"/>
		</g>
		<g>
			<line class="st0" x1="13.3" y1="24.4" x2="46.7" y2="24.4"/>
		</g>
		<g>
			<line class="st0" x1="13.3" y1="32.8" x2="31.4" y2="32.8"/>
		</g>
		<g>
			<path class="st2" d="M58,5.6H2c-0.3,0-0.6,0.3-0.6,0.6v36.5c0,0.3,0.3,0.6,0.6,0.6h10.6v0v1.4v8.3l11.2-9l0.9-0.7h1.3H58
				c0.3,0,0.6-0.3,0.6-0.6V6.2C58.6,5.9,58.3,5.6,58,5.6z"/>
			<path d="M58,4.2H2c-1.1,0-2,0.9-2,2v36.5c0,1.1,0.9,2,2,2h9.2v11.3l13.9-11.3H58c1.1,0,2-0.9,2-2V6.2C60,5.1,59.1,4.2,58,4.2z
				 M58.6,42.7c0,0.3-0.3,0.6-0.6,0.6H25.9h-1.3l-0.9,0.7l-11.2,9v-8.3v-1.4v0H2c-0.3,0-0.6-0.3-0.6-0.6V6.2c0-0.3,0.3-0.6,0.6-0.6
				h56c0.3,0,0.6,0.3,0.6,0.6V42.7z"/>
		</g>
	</g>
</g>
</svg>
